<svg width="146" height="44" viewBox="0 0 146 44" fill="none" xmlns="http://www.w3.org/2000/svg">
<path d="M8.79469 32.8243L8.20708 28.8966H4.03199L3.44439 32.8243H0.320801L3.78458 11.1757H8.76376L12.2275 32.8243H8.79469ZM7.74319 25.9586L6.10408 15.0106L4.46497 25.9586H7.74319Z" fill="#18191A"></path>
<path d="M13.8427 11.1757H22.8114V14.2684H17.2447V32.8243H13.8427V11.1757Z" fill="#18191A"></path>
<path d="M30.1174 11.1757C31.808 11.1757 33.076 11.6293 33.9213 12.5365C34.7667 13.4436 35.1893 14.7735 35.1893 16.526V19.3403C35.1893 21.0928 34.7667 22.4227 33.9213 23.3298C33.076 24.237 31.808 24.6906 30.1174 24.6906H28.5092V32.8243H25.1073V11.1757H30.1174ZM28.5092 21.598H30.1174C30.6741 21.598 31.0864 21.4433 31.3544 21.1341C31.6431 20.8248 31.7874 20.299 31.7874 19.5568V16.3095C31.7874 15.5673 31.6431 15.0415 31.3544 14.7323C31.0864 14.423 30.6741 14.2684 30.1174 14.2684H28.5092V21.598Z" fill="#18191A"></path>
<path d="M36.4868 16.3714C36.4868 14.6395 36.9301 13.2993 37.8166 12.3509C38.7032 11.4025 39.9815 10.9283 41.6515 10.9283C43.3216 10.9283 44.5999 11.4025 45.4864 12.3509C46.373 13.2993 46.8163 14.6395 46.8163 16.3714V27.6286C46.8163 29.3605 46.373 30.7007 45.4864 31.6491C44.5999 32.5975 43.3216 33.0717 41.6515 33.0717C39.9815 33.0717 38.7032 32.5975 37.8166 31.6491C36.9301 30.7007 36.4868 29.3605 36.4868 27.6286V16.3714ZM39.8887 27.8451C39.8887 29.2678 40.4763 29.9791 41.6515 29.9791C42.8268 29.9791 43.4144 29.2678 43.4144 27.8451V16.1549C43.4144 14.7323 42.8268 14.0209 41.6515 14.0209C40.4763 14.0209 39.8887 14.7323 39.8887 16.1549V27.8451Z" fill="#18191A"></path>
<path d="M88.0919 26.1751V32.8243H84.6899V11.1757H88.0919V20.6083L92.5453 11.1757H95.9472L91.2155 20.8248L95.9472 32.8243H92.4525L89.1434 24.1958L88.0919 26.1751Z" fill="#18191A"></path>
<path d="M105.042 27.3193C104.774 28.6183 104.423 29.6698 103.99 30.4739C103.578 31.2573 102.98 31.8552 102.196 32.2676C101.433 32.68 100.403 32.8861 99.1037 32.8861C98.7119 32.8861 98.4027 32.8758 98.1759 32.8552V29.8244C98.3202 29.845 98.5264 29.8553 98.7944 29.8553C99.516 29.8553 100.062 29.7213 100.434 29.4533C100.805 29.1853 101.052 28.7214 101.176 28.0616L101.207 27.876L96.5058 11.1757H99.8768L101.732 18.5671L102.784 23.6391L103.588 18.598L105.134 11.1757H108.691L105.042 27.3193Z" fill="#18191A"></path>
<path d="M109.161 29.7625C109.718 29.7625 110.13 29.7213 110.398 29.6388C110.687 29.5358 110.893 29.3296 111.017 29.0203C111.161 28.6904 111.243 28.1956 111.264 27.5358L111.821 11.1757H121.439V32.8243H117.975V14.2683H115.006L114.635 27.3503C114.573 29.3296 114.161 30.7419 113.398 31.5872C112.635 32.4325 111.398 32.8552 109.687 32.8552H109.161V29.7625Z" fill="#18191A"></path>
<path d="M124.043 11.1757H127.445V19.3094H129.053C130.744 19.3094 132.012 19.7629 132.857 20.6701C133.702 21.5773 134.125 22.9072 134.125 24.6597V27.474C134.125 29.2265 133.702 30.5563 132.857 31.4635C132.012 32.3707 130.744 32.8243 129.053 32.8243H124.043V11.1757ZM129.053 29.7316C129.61 29.7316 130.022 29.577 130.29 29.2677C130.579 28.9585 130.723 28.4327 130.723 27.6905V24.4432C130.723 23.7009 130.579 23.1752 130.29 22.8659C130.022 22.5566 129.61 22.402 129.053 22.402H127.445V29.7316H129.053Z" fill="#18191A"></path>
<path d="M145.679 11.1757V14.2683H142.123V32.8243H138.721V14.2683H135.164V11.1757H145.679Z" fill="#18191A"></path>
<path d="M66.7104 20.8945V21.9079C66.7104 21.9079 66.7104 21.8158 66.8025 21.8158C67.0789 21.4473 67.2631 21.1709 67.5395 20.8945L67.6316 20.8024C68.1844 20.1576 68.9213 19.6048 69.6583 19.1442C70.0268 18.8679 70.3953 18.6836 70.8559 18.4994C71.685 18.1309 72.5141 17.8545 73.4353 17.6703H73.5274C73.988 17.5782 74.3565 17.5782 74.8171 17.486H76.3832C77.1202 15.92 77.3965 13.9854 77.2123 11.9587C76.7517 11.8666 76.2911 11.8666 75.9226 11.8666C73.5274 11.8666 71.3165 12.6036 69.7504 13.9854C67.8159 15.5515 66.7104 18.0388 66.7104 20.8945ZM61.6437 13.9854C59.7091 12.4193 57.1297 11.6824 54.1818 11.9587C53.9976 13.9854 54.274 15.8278 55.0109 17.486H55.5637C56.4849 17.486 57.314 17.5782 58.1431 17.7624H58.2352C58.6958 17.8545 59.0643 17.9466 59.4328 18.1309H59.5249C60.354 18.4072 61.091 18.7757 61.7358 19.2363L61.8279 19.3285C62.1964 19.5127 62.4728 19.7891 62.7492 20.0654L62.8413 20.1576C63.1177 20.4339 63.394 20.6182 63.6704 20.8945L63.7625 20.9867C64.0389 21.263 64.2231 21.5394 64.4995 21.9079L64.5916 22V21.0788C64.6837 18.0388 63.5783 15.5515 61.6437 13.9854ZM77.2123 26.9746H76.9359C74.9092 26.7903 73.0668 27.1588 71.5007 27.8958C69.9347 28.6328 68.7371 29.8304 67.908 31.3964C66.9868 33.1467 66.6183 35.1734 66.8025 37.4765C70.0268 37.8449 72.7904 36.9237 74.725 34.9892C76.6596 33.0546 77.4886 30.1988 77.2123 26.9746ZM55.1031 24.9479H55.6558C56.577 24.9479 57.4982 25.04 58.3273 25.2243H58.4194C58.88 25.3164 59.2485 25.4085 59.7091 25.5928C60.5382 25.8691 61.2752 26.2376 62.0122 26.6982C62.0122 26.6982 62.1043 26.6982 62.1043 26.7903C62.4728 26.9746 62.7492 27.2509 63.0255 27.5273L63.1177 27.6194C63.394 27.8958 63.6704 28.08 63.9467 28.3564L64.0389 28.4485C64.3152 28.7249 64.4995 29.0013 64.7758 29.3697L64.868 29.4619C64.9601 27.3431 64.5916 25.5006 63.7625 23.9346C62.2886 21.1709 59.617 19.6048 56.2085 19.5127H54.4582C54.274 21.5394 54.5503 23.3818 55.2873 25.04C55.0109 24.9479 55.1031 24.9479 55.1031 24.9479ZM75.5541 19.4206H75.0014C74.725 19.4206 74.4486 19.4206 74.1723 19.5127C73.988 19.5127 73.8038 19.6048 73.7117 19.6048C73.4353 19.697 73.1589 19.697 72.8826 19.7891C72.6983 19.7891 72.6062 19.8812 72.422 19.9733C72.1456 20.0654 71.9613 20.1576 71.685 20.2497C71.5007 20.3418 71.4086 20.3418 71.2244 20.4339C70.948 20.5261 70.7638 20.7103 70.5795 20.8024C70.4874 20.8945 70.3032 20.9867 70.211 21.0788C70.0268 21.263 69.7504 21.4473 69.5662 21.6315L69.2898 21.9079C69.1056 22.0921 68.9213 22.3685 68.7371 22.5527L68.4607 22.8291C68.1844 23.1976 68.0001 23.4739 67.8159 23.8424C66.9868 25.4085 66.6183 27.3431 66.7104 29.3697C66.7104 29.3697 66.7104 29.2776 66.8025 29.2776C67.0789 28.9091 67.2631 28.6328 67.5395 28.3564L67.6316 28.2643C68.1844 27.6194 68.9213 27.0667 69.5662 26.6061C71.0401 25.6849 72.7904 25.1321 74.725 24.9479H76.2911C77.028 23.3818 77.3044 21.4473 77.1202 19.4206H75.5541ZM57.4061 27.0667C56.4849 26.8825 55.5637 26.8825 54.4582 26.9746H54.1818C53.8133 30.1988 54.7346 32.9625 56.6691 34.8971C58.6037 36.8316 61.3673 37.6607 64.5916 37.3843C64.7758 35.0813 64.4995 33.0546 63.4861 31.3043C62.2886 29.0013 60.1698 27.5273 57.4061 27.0667ZM65.6971 15.0909C68.1844 13.0642 69.5662 10.4848 69.5662 7.72112C69.5662 4.95747 68.1844 2.37806 65.6971 0.351379C63.2098 2.37806 61.8279 4.95747 61.8279 7.72112C61.8279 10.4848 63.2098 13.0642 65.6971 15.0909ZM64.6837 37.2922H66.6183V43.6486H64.6837V37.2922Z" fill="url('#paint0_linear_28_256')"></path>
<defs>
<linearGradient id="paint0_linear_28_256" x1="65.6848" y1="0.351379" x2="65.6848" y2="43.6486" gradientUnits="userSpaceOnUse">
<stop stop-color="#FEB702"></stop>
<stop offset="1" stop-color="#FE8304"></stop>
</linearGradient>
</defs>
</svg>
